<svg xmlns="http://www.w3.org/2000/svg" xmlns:xlink="http://www.w3.org/1999/xlink" width="500" zoomAndPan="magnify" viewBox="0 0 375 374.999991" height="500" preserveAspectRatio="xMidYMid meet" version="1.0"><defs><g/><clipPath id="ed3a426973"><path d="M 136.117188 192 L 154 192 L 154 204.394531 L 136.117188 204.394531 Z M 136.117188 192 " clip-rule="nonzero"/></clipPath><clipPath id="dedbd7f140"><path d="M 205 192 L 222 192 L 222 204.394531 L 205 204.394531 Z M 205 192 " clip-rule="nonzero"/></clipPath><clipPath id="912c803ac9"><path d="M 137 151.144531 L 222 151.144531 L 222 186 L 137 186 Z M 137 151.144531 " clip-rule="nonzero"/></clipPath><clipPath id="2c35fc2688"><path d="M 136.117188 173 L 222.367188 173 L 222.367188 203 L 136.117188 203 Z M 136.117188 173 " clip-rule="nonzero"/></clipPath></defs><rect x="-37.5" width="450" fill="#ffffff" y="-37.499999" height="449.999989" fill-opacity="1"/><rect x="-37.5" width="450" fill="#f2f2f2" y="-37.499999" height="449.999989" fill-opacity="1"/><g fill="#0a131e" fill-opacity="1"><g transform="translate(118.008605, 235.896117)"><g><path d="M 13.816406 0.515625 C 20.46875 0.515625 25.5 -3.515625 26.53125 -9.648438 L 19.46875 -9.648438 C 18.605469 -7.375 16.574219 -5.925781 13.957031 -5.925781 C 10.578125 -5.925781 8.234375 -8.441406 8.234375 -12.058594 C 8.234375 -15.710938 10.613281 -18.195312 14.023438 -18.195312 C 16.539062 -18.195312 18.640625 -16.78125 19.367188 -14.609375 L 26.394531 -14.609375 C 25.152344 -20.710938 20.191406 -24.636719 13.75 -24.636719 C 6.304688 -24.636719 1.171875 -19.503906 1.171875 -12.058594 C 1.171875 -4.617188 6.304688 0.515625 13.816406 0.515625 Z M 13.816406 0.515625 "/></g></g><g transform="translate(145.643735, 235.896117)"><g><path d="M 16.953125 0 L 23.914062 0 L 23.914062 -24.121094 L 16.953125 -24.121094 L 16.953125 -15.472656 L 9.511719 -15.472656 L 9.511719 -24.121094 L 2.550781 -24.121094 L 2.550781 0 L 9.511719 0 L 9.511719 -9.0625 L 16.953125 -9.0625 Z M 16.953125 0 "/></g></g></g><g fill="#0a131e" fill-opacity="1"><g transform="translate(172.107296, 235.896117)"><g><path d="M 2.550781 0 L 9.511719 0 L 9.511719 -24.121094 L 2.550781 -24.121094 Z M 2.550781 0 "/></g></g></g><g fill="#0a131e" fill-opacity="1"><g transform="translate(184.167508, 235.896117)"><g><path d="M 14.058594 0.515625 C 22.363281 0.515625 27.566406 -5.511719 26.808594 -13.988281 L 12.851562 -13.988281 L 12.851562 -9.097656 L 19.503906 -9.097656 C 18.8125 -7.0625 16.882812 -5.683594 14.128906 -5.683594 C 10.269531 -5.683594 8.027344 -8.40625 8.027344 -12.058594 C 8.027344 -15.851562 10.476562 -18.433594 14.058594 -18.433594 C 16.195312 -18.433594 18.019531 -17.503906 18.953125 -15.988281 L 26.359375 -15.988281 C 24.949219 -21.261719 20.054688 -24.636719 13.957031 -24.636719 C 6.375 -24.636719 1.171875 -19.46875 1.171875 -12.058594 C 1.171875 -4.617188 6.410156 0.515625 14.058594 0.515625 Z M 14.058594 0.515625 "/></g></g><g transform="translate(212.147215, 235.896117)"><g><path d="M 14.300781 0.515625 C 21.984375 0.515625 27.429688 -4.6875 27.429688 -12.058594 C 27.429688 -19.433594 21.984375 -24.636719 14.300781 -24.636719 C 6.617188 -24.636719 1.171875 -19.433594 1.171875 -12.058594 C 1.171875 -4.6875 6.617188 0.515625 14.300781 0.515625 Z M 8.234375 -12.058594 C 8.234375 -15.679688 10.75 -18.195312 14.300781 -18.195312 C 17.882812 -18.195312 20.363281 -15.679688 20.363281 -12.058594 C 20.363281 -8.441406 17.882812 -5.925781 14.300781 -5.925781 C 10.75 -5.925781 8.234375 -8.441406 8.234375 -12.058594 Z M 8.234375 -12.058594 "/></g></g></g><g fill="#0a131e" fill-opacity="1"><g transform="translate(99.31101, 256.172018)"><g><path d="M 8.84375 -5.671875 L 7 -5.671875 C 7.007812 -6.148438 6.875 -6.523438 6.59375 -6.796875 C 6.320312 -7.078125 5.945312 -7.21875 5.46875 -7.21875 C 4.769531 -7.21875 4.160156 -6.957031 3.640625 -6.4375 C 3.128906 -5.914062 2.796875 -5.1875 2.640625 -4.25 C 2.492188 -3.34375 2.578125 -2.660156 2.890625 -2.203125 C 3.203125 -1.742188 3.675781 -1.515625 4.3125 -1.515625 C 4.832031 -1.515625 5.296875 -1.640625 5.703125 -1.890625 C 6.109375 -2.148438 6.390625 -2.515625 6.546875 -2.984375 L 8.40625 -2.984375 C 8.25 -2.453125 7.976562 -1.945312 7.59375 -1.46875 C 7.21875 -1 6.742188 -0.613281 6.171875 -0.3125 C 5.597656 -0.0195312 4.941406 0.125 4.203125 0.125 C 3.410156 0.125 2.726562 -0.0546875 2.15625 -0.421875 C 1.59375 -0.785156 1.1875 -1.3125 0.9375 -2 C 0.695312 -2.6875 0.65625 -3.507812 0.8125 -4.46875 C 0.96875 -5.40625 1.269531 -6.195312 1.71875 -6.84375 C 2.175781 -7.5 2.734375 -7.992188 3.390625 -8.328125 C 4.046875 -8.671875 4.75 -8.84375 5.5 -8.84375 C 6.1875 -8.84375 6.785156 -8.71875 7.296875 -8.46875 C 7.816406 -8.21875 8.210938 -7.859375 8.484375 -7.390625 C 8.753906 -6.921875 8.875 -6.347656 8.84375 -5.671875 Z M 8.84375 -5.671875 "/></g></g></g><g fill="#0a131e" fill-opacity="1"><g transform="translate(115.899715, 256.172018)"><g><path d="M 1.71875 0 L -0.265625 0 L 4.203125 -8.734375 L 6.578125 -8.734375 L 8.140625 0 L 6.15625 0 L 5.84375 -1.984375 L 2.703125 -1.984375 Z M 3.40625 -3.4375 L 5.625 -3.4375 L 5.09375 -6.734375 L 5.03125 -6.734375 Z M 3.40625 -3.4375 "/></g></g></g><g fill="#0a131e" fill-opacity="1"><g transform="translate(132.437333, 256.172018)"><g><path d="M 0.21875 0 L 1.65625 -8.734375 L 5.109375 -8.734375 C 6.097656 -8.734375 6.820312 -8.472656 7.28125 -7.953125 C 7.738281 -7.429688 7.898438 -6.738281 7.765625 -5.875 C 7.660156 -5.28125 7.4375 -4.769531 7.09375 -4.34375 C 6.757812 -3.925781 6.328125 -3.609375 5.796875 -3.390625 L 7.09375 0 L 5.0625 0 L 3.921875 -3.09375 L 2.578125 -3.09375 L 2.0625 0 Z M 2.828125 -4.578125 L 4.078125 -4.578125 C 5.117188 -4.578125 5.710938 -5.007812 5.859375 -5.875 C 6.003906 -6.769531 5.554688 -7.21875 4.515625 -7.21875 L 3.265625 -7.21875 Z M 2.828125 -4.578125 "/></g></g></g><g fill="#0a131e" fill-opacity="1"><g transform="translate(147.948969, 256.172018)"><g/></g></g><g fill="#0a131e" fill-opacity="1"><g transform="translate(158.300876, 256.172018)"><g><path d="M 0.21875 0 L 1.65625 -8.734375 L 5.109375 -8.734375 C 6.097656 -8.734375 6.820312 -8.472656 7.28125 -7.953125 C 7.738281 -7.429688 7.898438 -6.738281 7.765625 -5.875 C 7.660156 -5.28125 7.4375 -4.769531 7.09375 -4.34375 C 6.757812 -3.925781 6.328125 -3.609375 5.796875 -3.390625 L 7.09375 0 L 5.0625 0 L 3.921875 -3.09375 L 2.578125 -3.09375 L 2.0625 0 Z M 2.828125 -4.578125 L 4.078125 -4.578125 C 5.117188 -4.578125 5.710938 -5.007812 5.859375 -5.875 C 6.003906 -6.769531 5.554688 -7.21875 4.515625 -7.21875 L 3.265625 -7.21875 Z M 2.828125 -4.578125 "/></g></g></g><g fill="#0a131e" fill-opacity="1"><g transform="translate(173.812511, 256.172018)"><g><path d="M 0.21875 0 L 1.65625 -8.734375 L 7.546875 -8.734375 L 7.28125 -7.203125 L 3.25 -7.203125 L 2.90625 -5.125 L 6.640625 -5.125 L 6.390625 -3.609375 L 2.65625 -3.609375 L 2.3125 -1.515625 L 6.359375 -1.515625 L 6.109375 0 Z M 0.21875 0 "/></g></g></g><g fill="#0a131e" fill-opacity="1"><g transform="translate(188.728133, 256.172018)"><g><path d="M 8.96875 -8.734375 L 7.515625 0 L 5.921875 0 L 3.046875 -5.5 L 2.96875 -5.5 L 2.0625 0 L 0.21875 0 L 1.65625 -8.734375 L 3.28125 -8.734375 L 6.140625 -3.234375 L 6.21875 -3.234375 L 7.125 -8.734375 Z M 8.96875 -8.734375 "/></g></g></g><g fill="#0a131e" fill-opacity="1"><g transform="translate(205.112489, 256.172018)"><g><path d="M 1.078125 -7.203125 L 1.328125 -8.734375 L 8.5 -8.734375 L 8.234375 -7.203125 L 5.5625 -7.203125 L 4.375 0 L 2.546875 0 L 3.75 -7.203125 Z M 1.078125 -7.203125 "/></g></g></g><g fill="#0a131e" fill-opacity="1"><g transform="translate(220.696492, 256.172018)"><g><path d="M 1.71875 0 L -0.265625 0 L 4.203125 -8.734375 L 6.578125 -8.734375 L 8.140625 0 L 6.15625 0 L 5.84375 -1.984375 L 2.703125 -1.984375 Z M 3.40625 -3.4375 L 5.625 -3.4375 L 5.09375 -6.734375 L 5.03125 -6.734375 Z M 3.40625 -3.4375 "/></g></g></g><g fill="#0a131e" fill-opacity="1"><g transform="translate(237.234108, 256.172018)"><g><path d="M 0.21875 0 L 1.65625 -8.734375 L 3.5 -8.734375 L 2.3125 -1.515625 L 6.0625 -1.515625 L 5.796875 0 Z M 0.21875 0 "/></g></g></g><g fill="#0a131e" fill-opacity="1"><g transform="translate(251.609065, 256.172018)"><g><path d="M 5.96875 -6.1875 C 5.976562 -6.539062 5.875 -6.8125 5.65625 -7 C 5.4375 -7.195312 5.109375 -7.296875 4.671875 -7.296875 C 4.210938 -7.296875 3.847656 -7.203125 3.578125 -7.015625 C 3.304688 -6.835938 3.148438 -6.609375 3.109375 -6.328125 C 3.046875 -6.015625 3.140625 -5.773438 3.390625 -5.609375 C 3.640625 -5.453125 3.945312 -5.332031 4.3125 -5.25 L 5.0625 -5.0625 C 5.539062 -4.945312 5.957031 -4.78125 6.3125 -4.5625 C 6.675781 -4.34375 6.941406 -4.0625 7.109375 -3.71875 C 7.285156 -3.382812 7.332031 -2.976562 7.25 -2.5 C 7.113281 -1.695312 6.707031 -1.054688 6.03125 -0.578125 C 5.363281 -0.109375 4.5 0.125 3.4375 0.125 C 2.375 0.125 1.566406 -0.113281 1.015625 -0.59375 C 0.460938 -1.082031 0.253906 -1.796875 0.390625 -2.734375 L 2.171875 -2.734375 C 2.128906 -2.296875 2.242188 -1.96875 2.515625 -1.75 C 2.796875 -1.53125 3.179688 -1.421875 3.671875 -1.421875 C 4.140625 -1.421875 4.53125 -1.519531 4.84375 -1.71875 C 5.15625 -1.914062 5.335938 -2.175781 5.390625 -2.5 C 5.441406 -2.789062 5.347656 -3.015625 5.109375 -3.171875 C 4.878906 -3.335938 4.535156 -3.476562 4.078125 -3.59375 L 3.171875 -3.828125 C 2.472656 -4.003906 1.941406 -4.28125 1.578125 -4.65625 C 1.210938 -5.039062 1.082031 -5.554688 1.1875 -6.203125 C 1.28125 -6.734375 1.5 -7.195312 1.84375 -7.59375 C 2.195312 -7.988281 2.640625 -8.296875 3.171875 -8.515625 C 3.710938 -8.734375 4.300781 -8.84375 4.9375 -8.84375 C 5.582031 -8.84375 6.128906 -8.726562 6.578125 -8.5 C 7.023438 -8.28125 7.347656 -7.972656 7.546875 -7.578125 C 7.753906 -7.179688 7.816406 -6.71875 7.734375 -6.1875 Z M 5.96875 -6.1875 "/></g></g></g><path fill="#0a131e" d="M 142.734375 183.304688 C 146.183594 184.605469 151.425781 185.453125 153.082031 185.550781 C 154.738281 185.648438 155.101562 185.257812 155.101562 185.257812 C 149.761719 184.25 139.671875 180.570312 139.671875 180.570312 C 139.671875 180.570312 139.28125 182.003906 142.734375 183.304688 Z M 142.734375 183.304688 " fill-opacity="1" fill-rule="nonzero"/><path fill="#0a131e" d="M 219.105469 180.570312 C 219.105469 180.570312 209.015625 184.25 203.675781 185.257812 C 203.675781 185.257812 204.03125 185.648438 205.691406 185.554688 C 207.351562 185.457031 212.59375 184.609375 216.039062 183.308594 C 219.488281 182.007812 219.105469 180.570312 219.105469 180.570312 Z M 219.105469 180.570312 " fill-opacity="1" fill-rule="nonzero"/><g clip-path="url(#ed3a426973)"><path fill="#0a131e" d="M 136.90625 192.386719 L 137.136719 201.679688 C 137.136719 202.023438 137.203125 202.351562 137.335938 202.667969 C 137.464844 202.984375 137.652344 203.265625 137.894531 203.507812 C 138.136719 203.75 138.417969 203.9375 138.734375 204.066406 C 139.050781 204.199219 139.378906 204.265625 139.722656 204.265625 L 150.347656 204.265625 C 150.71875 204.265625 151.078125 204.195312 151.421875 204.054688 C 151.761719 203.910156 152.066406 203.707031 152.328125 203.445312 C 152.589844 203.183594 152.792969 202.882812 152.933594 202.539062 C 153.078125 202.195312 153.148438 201.835938 153.148438 201.464844 C 153.148438 201.464844 145.859375 200.492188 141.332031 198.574219 C 137.746094 197.050781 136.90625 192.386719 136.90625 192.386719 Z M 136.90625 192.386719 " fill-opacity="1" fill-rule="nonzero"/></g><g clip-path="url(#dedbd7f140)"><path fill="#0a131e" d="M 217.449219 198.574219 C 212.921875 200.496094 205.632812 201.46875 205.632812 201.46875 C 205.632812 201.839844 205.703125 202.199219 205.84375 202.539062 C 205.988281 202.882812 206.1875 203.183594 206.453125 203.445312 C 206.714844 203.710938 207.015625 203.910156 207.359375 204.054688 C 207.703125 204.195312 208.058594 204.265625 208.429688 204.265625 L 219.058594 204.265625 C 219.402344 204.265625 219.730469 204.199219 220.050781 204.070312 C 220.367188 203.9375 220.648438 203.75 220.890625 203.507812 C 221.132812 203.265625 221.320312 202.984375 221.449219 202.667969 C 221.582031 202.351562 221.648438 202.019531 221.648438 201.675781 L 221.875 192.386719 C 221.875 192.386719 221.035156 197.050781 217.449219 198.574219 Z M 217.449219 198.574219 " fill-opacity="1" fill-rule="nonzero"/></g><path fill="#0a131e" d="M 179.390625 197.234375 C 170.054688 197.386719 162.003906 194.699219 162.003906 194.699219 C 168.789062 198.34375 179.390625 198.320312 179.390625 198.320312 C 179.390625 198.320312 189.984375 198.347656 196.773438 194.699219 C 196.773438 194.699219 188.988281 197.332031 179.390625 197.234375 Z M 179.390625 197.234375 " fill-opacity="1" fill-rule="nonzero"/><path fill="#0a131e" d="M 193.648438 192.195312 C 188.832031 193.90625 179.390625 193.964844 179.390625 193.964844 C 179.390625 193.964844 169.945312 193.90625 165.132812 192.191406 C 160.714844 190.613281 157.253906 187.082031 157.253906 187.082031 C 157.253906 187.082031 160.703125 191.378906 164.804688 193.070312 C 168.910156 194.765625 179.390625 194.960938 179.390625 194.960938 C 179.390625 194.960938 189.871094 194.765625 193.972656 193.070312 C 198.074219 191.378906 201.527344 187.082031 201.527344 187.082031 C 201.527344 187.082031 198.066406 190.613281 193.648438 192.195312 Z M 193.648438 192.195312 " fill-opacity="1" fill-rule="nonzero"/><path fill="#0a131e" d="M 179.390625 191.953125 C 179.390625 191.953125 189.871094 191.757812 193.972656 190.066406 C 196.390625 189.066406 198.582031 187.164062 199.976562 185.769531 C 199.796875 185.808594 199.554688 185.855469 199.453125 185.878906 C 198.023438 186.992188 195.96875 188.359375 193.648438 189.1875 C 188.832031 190.898438 179.390625 190.957031 179.390625 190.957031 C 179.390625 190.957031 169.949219 190.898438 165.132812 189.183594 C 162.808594 188.359375 160.753906 186.988281 159.324219 185.875 C 159.152344 185.84375 158.976562 185.808594 158.804688 185.769531 C 160.195312 187.164062 162.386719 189.066406 164.804688 190.066406 C 168.910156 191.757812 179.390625 191.953125 179.390625 191.953125 Z M 179.390625 191.953125 " fill-opacity="1" fill-rule="nonzero"/><g clip-path="url(#912c803ac9)"><path fill="#0a131e" d="M 142.082031 176.957031 C 145.792969 178.796875 160.214844 185.292969 179.390625 185.257812 C 198.5625 185.292969 212.984375 178.796875 216.699219 176.957031 C 220.128906 175.257812 221.578125 173.539062 220.894531 171.585938 C 220.210938 169.632812 215.132812 166.898438 215.132812 166.898438 C 215.132812 166.898438 214.546875 166.3125 209.859375 166.117188 C 209.859375 166.117188 209.730469 165.898438 209.5 165.519531 C 209.992188 165.597656 210.476562 165.714844 210.949219 165.871094 C 214.222656 166.898438 218.179688 165.238281 217.835938 163.527344 C 217.496094 161.820312 213.539062 161.136719 211.734375 161.476562 C 209.925781 161.820312 209.878906 163.96875 209.878906 163.96875 L 208.546875 163.96875 C 206.847656 161.265625 203.84375 156.714844 201.59375 154.59375 C 198.269531 151.46875 195.082031 151.335938 179.390625 151.144531 C 163.699219 151.339844 160.507812 151.472656 157.1875 154.59375 C 154.933594 156.71875 151.933594 161.265625 150.234375 163.972656 L 148.902344 163.972656 C 148.902344 163.972656 148.851562 161.820312 147.046875 161.480469 C 145.242188 161.140625 141.285156 161.824219 140.941406 163.53125 C 140.601562 165.238281 144.554688 166.902344 147.828125 165.875 C 148.304688 165.71875 148.785156 165.597656 149.277344 165.519531 C 149.050781 165.898438 148.921875 166.121094 148.921875 166.121094 C 144.234375 166.3125 143.648438 166.898438 143.644531 166.898438 C 143.644531 166.898438 138.570312 169.632812 137.882812 171.585938 C 137.191406 173.539062 138.652344 175.257812 142.082031 176.957031 Z M 157.867188 170.117188 C 158.015625 171.679688 158.796875 176.074219 158.796875 176.074219 L 156.207031 167.96875 L 159.527344 167.96875 C 159.527344 167.96875 157.722656 168.558594 157.867188 170.117188 Z M 179.390625 184.375 C 179.390625 184.375 169.425781 183.75 161.808594 181.179688 C 161.808594 181.179688 173.433594 182.519531 179.390625 182.226562 C 185.347656 182.519531 196.96875 181.179688 196.96875 181.179688 C 189.351562 183.753906 179.390625 184.375 179.390625 184.375 Z M 200.726562 176.074219 C 200.726562 176.074219 201.511719 171.679688 201.65625 170.117188 C 201.800781 168.554688 199.996094 167.96875 199.996094 167.96875 L 203.316406 167.96875 Z M 159.660156 154.554688 C 162.441406 152.832031 166.308594 152.417969 179.390625 152.417969 C 191.335938 152.417969 196.683594 152.792969 199.066406 154.515625 C 202.402344 156.472656 205.648438 162.476562 208.53125 167.035156 L 179.390625 167.679688 L 150.351562 167.035156 C 153.234375 162.476562 156.324219 156.515625 159.660156 154.554688 Z M 159.660156 154.554688 " fill-opacity="1" fill-rule="nonzero"/></g><g clip-path="url(#2c35fc2688)"><path fill="#0a131e" d="M 221.496094 173.644531 C 221.234375 176.296875 217.625 177.765625 208.25 181.183594 C 195.675781 185.773438 179.386719 185.941406 179.386719 185.941406 C 179.386719 185.941406 163.105469 185.773438 150.527344 181.183594 C 141.152344 177.765625 137.546875 176.296875 137.28125 173.644531 C 137.28125 173.644531 136.125 175.125 136.289062 180.703125 C 136.464844 186.820312 136.484375 194.570312 140.976562 197.433594 C 144.320312 199.566406 155.589844 201.335938 161.300781 201.351562 C 161.304688 201.351562 161.304688 201.351562 161.308594 201.351562 C 180.460938 203.675781 197.539062 201.351562 197.539062 201.351562 C 203.269531 201.324219 214.472656 199.558594 217.804688 197.433594 C 222.304688 194.570312 222.316406 186.820312 222.492188 180.699219 C 222.652344 175.125 221.496094 173.644531 221.496094 173.644531 Z M 221.074219 180.636719 C 220.242188 181.480469 220.539062 181.808594 219.367188 187.667969 C 218.191406 193.527344 206.34375 194.503906 206.34375 194.503906 C 208.6875 189.359375 213.308594 185 213.308594 185 C 204.308594 188.683594 197.050781 195.472656 194.8125 198.902344 C 192.109375 199.367188 187.335938 199.941406 180.261719 199.941406 C 171.285156 199.941406 165.722656 198.710938 163.34375 198.039062 C 160.574219 194.429688 153.765625 188.394531 145.46875 185 C 145.46875 185 150.09375 189.359375 152.4375 194.503906 C 152.4375 194.503906 140.589844 193.527344 139.414062 187.667969 C 138.242188 181.808594 138.539062 181.480469 137.707031 180.636719 C 137.476562 179.765625 137.371094 178.882812 137.386719 177.980469 C 137.386719 177.980469 148.335938 186.300781 179.390625 186.855469 C 210.441406 186.300781 221.390625 177.980469 221.390625 177.980469 C 221.410156 178.882812 221.300781 179.765625 221.074219 180.636719 Z M 221.074219 180.636719 " fill-opacity="1" fill-rule="nonzero"/></g></svg>