<svg xmlns="http://www.w3.org/2000/svg" version="1.1" xmlns:xlink="http://www.w3.org/1999/xlink" xmlns:svgjs="http://svgjs.dev/svgjs" width="100%" height="100%" viewBox="0 0 1000 600"><rect width="1000" height="600" x="0" y="0" fill="#42cbf5"/><g><circle r="166.66666666666666" cx="350.72484842936194" cy="372.94704925034614" fill="#00" transform="matrix(0.6791330955040948,0,0,0.6791330955040948,0,46.7192990726939)"/><path d="M399.9903039156704 327.68817819406763L399.3122681923291 326.7944038314813Q398.66505227459425 321.92487454566674 395.08995482424933 318.5963355401733Q391.5456771795109 315.26779653467986 386.33713003202575 313.2645091702624Q381.12858288454055 311.261221805845 374.8105227352242 310.4907266656845Q368.4616427803014 309.720231525524 362.2668618534108 309.720231525524L362.2668618534108 309.720231525524Q340.29234045603243 309.720231525524 327.65622015739973 319.70584854200445L327.65622015739973 319.70584854200445Q317.2083060568229 328.1196554725575 311.99975890933774 342.11184721787265Q306.79121176185254 356.07321915758155 306.79121176185254 372.715914185049L306.79121176185254 372.715914185049Q306.79121176185254 388.49565465553667 311.32172318599646 400.36127981400887Q315.8830544157468 412.22690497248095 323.8653840678099 420.20923462454414Q331.847713719873 428.1915642766072 342.8503843213654 432.32141822786764Q353.82223511725135 436.4204523735217 366.7049138607354 436.4204523735217L366.7049138607354 436.4204523735217Q375.7967565146297 436.4204523735217 387.66238167310183 433.86240850818865Q399.52800683157403 431.3043646428557 410.19165957139575 424.0000707141339L410.19165957139575 424.0000707141339L412.4106855750581 426.43483535704115L407.5411562892436 436.4204523735217Q396.4460262709319 442.3994946611674 385.44335566943954 445.1732771657453Q374.47150487355356 447.94705967032314 362.69833913190064 447.94705967032314L362.69833913190064 447.94705967032314Q346.05564410443316 447.94705967032314 332.52574944321424 442.61523330041234Q318.9958547819953 437.3142267361079 309.3492556271855 427.4210691364467Q299.67183666676925 417.55873134239187 294.37083010246477 403.90555745874724Q289.0390037325539 390.2523835751026 289.0390037325539 373.6096885476352L289.0390037325539 373.6096885476352Q289.0390037325539 358.0765065219989 293.8160736015492 344.20759399910935Q298.5623236649381 330.3386814762198 307.99318418050296 320.1373258204943Q317.4240446960678 309.93597016476895 331.2929572189574 303.92610807151675Q345.16186974184694 297.94706578387104 363.59211349448685 297.94706578387104L363.59211349448685 297.94706578387104Q367.59868822332163 297.94706578387104 373.02297401005177 298.2860836455417Q378.4472597967819 298.6251015072123 384.45712189003405 299.48805606419216Q390.43616417767976 300.3818304267784 396.6617649101768 301.83036129028017Q402.85654583706753 303.27889215378195 408.65066929107473 305.49791815744425L408.65066929107473 305.49791815744425L409.29788520880953 307.5012055218616L406.4316432874124 327.68817819406763L399.9903039156704 327.68817819406763Z " fill="#ffffff" transform="matrix(0.6791330955040948,0,0,0.6791330955040948,0,46.7192990726939)"/><path d="M711.6761445223597 327.68817819406763L710.9981087990185 326.7944038314813Q710.3508928812836 321.92487454566674 706.7757954309387 318.5963355401733Q703.2315177862002 315.26779653467986 698.0229706387152 313.2645091702624Q692.81442349123 311.261221805845 686.4963633419136 310.4907266656845Q680.1474833869908 309.720231525524 673.9527024601001 309.720231525524L673.9527024601001 309.720231525524Q651.9781810627218 309.720231525524 639.3420607640891 319.70584854200445L639.3420607640891 319.70584854200445Q628.8941466635123 328.1196554725575 623.6855995160271 342.11184721787265Q618.4770523685419 356.07321915758155 618.4770523685419 372.715914185049L618.4770523685419 372.715914185049Q618.4770523685419 388.49565465553667 623.0075637926858 400.36127981400887Q627.5688950224361 412.22690497248095 635.5512246744993 420.20923462454414Q643.5335543265624 428.1915642766072 654.5362249280548 432.32141822786764Q665.5080757239407 436.4204523735217 678.3907544674248 436.4204523735217L678.3907544674248 436.4204523735217Q687.482597121319 436.4204523735217 699.3482222797912 433.86240850818865Q711.2138474382634 431.3043646428557 721.8775001780851 424.0000707141339L721.8775001780851 424.0000707141339L724.0965261817474 426.43483535704115L719.2269968959329 436.4204523735217Q708.1318668776213 442.3994946611674 697.1291962761288 445.1732771657453Q686.157345480243 447.94705967032314 674.38417973859 447.94705967032314L674.38417973859 447.94705967032314Q657.7414847111226 447.94705967032314 644.2115900499036 442.61523330041234Q630.6816953886847 437.3142267361079 621.0350962338749 427.4210691364467Q611.3576772734585 417.55873134239187 606.0566707091542 403.90555745874724Q600.7248443392433 390.2523835751026 600.7248443392433 373.6096885476352L600.7248443392433 373.6096885476352Q600.7248443392433 358.0765065219989 605.5019142082386 344.20759399910935Q610.2481642716274 330.3386814762198 619.6790247871924 320.1373258204943Q629.1098853027572 309.93597016476895 642.9787978256468 303.92610807151675Q656.8477103485363 297.94706578387104 675.2779541011763 297.94706578387104L675.2779541011763 297.94706578387104Q679.284528830011 297.94706578387104 684.7088146167412 298.2860836455417Q690.1331004034713 298.6251015072123 696.1429624967234 299.48805606419216Q702.1220047843691 300.3818304267784 708.3476055168662 301.83036129028017Q714.5423864437569 303.27889215378195 720.336509897764 305.49791815744425L720.336509897764 305.49791815744425L720.9837258154989 307.5012055218616L718.1174838941017 327.68817819406763L711.6761445223597 327.68817819406763ZM892.0644667367433 445.9437723059058L891.6329894582533 446.837546668492Q890.0919991779322 446.837546668492 886.5169017275873 446.62180802924706Q882.9726240828488 446.40606939000213 879.2126077988655 446.1903307507572Q875.4217717092756 445.9437723059058 871.8774940645374 445.72803366666085Q868.3332164197989 445.5122950274159 866.7922261394777 445.5122950274159L866.7922261394777 445.5122950274159L862.5699127713981 445.5122950274159Q860.9981026854706 445.5122950274159 857.4538250407321 445.72803366666085Q853.9095473959937 445.9437723059058 850.1495311120103 446.1903307507572Q846.3586950224205 446.40606939000213 842.814417377682 446.62180802924706Q839.2701397329436 446.837546668492 837.6983296470162 446.837546668492L837.6983296470162 446.837546668492L837.2668523685262 445.9437723059058L837.9448880918675 441.96801738267743L838.8078426488473 441.0742430200912Q842.3829400991922 441.0742430200912 845.5881998822599 440.7352251584206Q848.7934596653278 440.39620729675005 850.7967470297451 438.8552170164289L850.7967470297451 438.8552170164289Q852.5842957549175 437.3142267361079 854.0328266184193 434.8486422875942Q855.4505376763148 432.41387764468686 856.128573399656 426.2190967177962L856.128573399656 426.2190967177962Q856.344312038901 424.6472866318687 856.4675912613267 422.55153985063214Q856.5600506781459 420.42497326378907 856.6833299005716 417.34299270314693Q856.8066091229973 414.2301923368983 856.8066091229973 409.7921403295737Q856.8066091229973 405.354088322249 856.8066091229973 398.69701031126203L856.8066091229973 398.69701031126203L856.8066091229973 373.1782112691453L777.7846275481332 373.1782112691453L777.7846275481332 394.25895830393745Q777.7846275481332 402.2412879560005 777.7846275481332 407.2340964642408Q777.7846275481332 412.22690497248095 777.907906770559 415.5554439779745Q778.0311859929845 418.88398298346794 778.1236454098039 421.22628820955595Q778.2469246322296 423.5377736300376 778.4626632714745 426.2190967177962L778.4626632714745 426.2190967177962Q778.8941405499644 432.41387764468686 780.4659506358919 434.8486422875942Q782.0069409162129 437.3142267361079 783.7944896413853 438.8552170164289L783.7944896413853 438.8552170164289Q785.7977770058028 440.39620729675005 789.0030367888706 440.7352251584206Q792.2082965719384 441.0742430200912 795.7833940222832 441.0742430200912L795.7833940222832 441.0742430200912L796.6463485792631 441.96801738267743L797.3243843026044 445.9437723059058L796.8929070241144 446.837546668492Q795.3210969381869 446.837546668492 791.7768192934484 446.62180802924706Q788.23254164871 446.40606939000213 784.4417055591202 446.1903307507572Q780.6816892751368 445.9437723059058 777.1374116303984 445.72803366666085Q773.59313398566 445.5122950274159 772.0213238997325 445.5122950274159L772.0213238997325 445.5122950274159L767.7990105316528 445.5122950274159Q766.2580202513317 445.5122950274159 762.7137426065933 445.72803366666085Q759.1694649618548 445.9437723059058 755.378628872265 446.1903307507572Q751.6186125882816 446.40606939000213 748.0743349435431 446.62180802924706Q744.4992374931983 446.837546668492 742.9582472128773 446.837546668492L742.9582472128773 446.837546668492L742.5267699343874 445.9437723059058L743.1739858521222 441.96801738267743L744.2834988539533 441.0742430200912Q747.8277764986918 441.0742430200912 750.9405768649403 440.7352251584206Q754.053377231189 440.39620729675005 756.0566645956063 438.8552170164289L756.0566645956063 438.8552170164289Q757.8133935151723 437.3142267361079 759.477663017919 434.8486422875942Q761.1419325206657 432.41387764468686 761.6042296047622 426.2190967177962L761.6042296047622 426.2190967177962Q761.6042296047622 424.6472866318687 761.6966890215814 422.55153985063214Q761.819968244007 420.42497326378907 761.9432474664327 417.34299270314693Q762.035706883252 414.2301923368983 762.035706883252 409.7921403295737Q762.035706883252 405.354088322249 762.035706883252 398.69701031126203L762.035706883252 398.69701031126203L762.035706883252 353.6384545146742Q762.035706883252 345.87186350185607 762.035706883252 340.54003713194516Q762.035706883252 335.2390305676407 761.9432474664327 331.44819447805094Q761.819968244007 327.68817819406763 761.6966890215814 325.0068551063089Q761.6042296047622 322.3563518241567 761.3884909655171 319.70584854200445L761.3884909655171 319.70584854200445Q760.9261938814209 313.69598644875236 759.3852036010998 311.1379425834193Q757.8133935151723 308.6107185236928 756.0566645956063 307.0389084377654L756.0566645956063 307.0389084377654Q754.053377231189 305.49791815744425 750.9405768649403 305.1589002957736Q747.8277764986918 304.81988243410296 744.2834988539533 304.81988243410296L744.2834988539533 304.81988243410296L743.1739858521222 303.92610807151675L742.5267699343874 299.95035314828846L742.9582472128773 299.0565787857022Q744.4992374931983 299.0565787857022 748.0743349435431 299.2723174249472Q751.6186125882816 299.48805606419216 755.378628872265 299.73461450904347Q759.1694649618548 299.95035314828846 762.7137426065933 300.16609178753345Q766.2580202513317 300.3818304267784 767.7990105316528 300.3818304267784L767.7990105316528 300.3818304267784L772.0213238997325 300.3818304267784Q773.59313398566 300.3818304267784 777.1374116303984 300.16609178753345Q780.6816892751368 299.95035314828846 784.4417055591202 299.73461450904347Q788.23254164871 299.48805606419216 791.7768192934484 299.2723174249472Q795.3210969381869 299.0565787857022 796.8929070241144 299.0565787857022L796.8929070241144 299.0565787857022L797.3243843026044 299.95035314828846L796.6463485792631 303.92610807151675L795.7833940222832 304.81988243410296Q792.2082965719384 304.81988243410296 789.0030367888706 305.1589002957736Q785.7977770058028 305.49791815744425 783.7944896413853 307.0389084377654L783.7944896413853 307.0389084377654Q782.0069409162129 308.6107185236928 780.4659506358919 311.0454831666001Q778.8941405499644 313.4802478095073 778.4626632714745 319.70584854200445L778.4626632714745 319.70584854200445Q778.2469246322296 322.7878291026466 778.1236454098039 325.4691521904052Q778.0311859929845 328.1196554725575 777.907906770559 331.66393311729587Q777.7846275481332 335.2390305676407 777.7846275481332 340.3242984927002Q777.7846275481332 345.4403862233662 777.7846275481332 353.4227158754293L777.7846275481332 353.4227158754293L777.7846275481332 363.4083328919097L856.8066091229973 363.4083328919097L856.8066091229973 353.6384545146742Q856.8066091229973 345.87186350185607 856.8066091229973 340.54003713194516Q856.8066091229973 335.2390305676407 856.6833299005716 331.44819447805094Q856.5600506781459 327.68817819406763 856.4675912613267 325.0068551063089Q856.344312038901 322.3563518241567 856.128573399656 319.70584854200445L856.128573399656 319.70584854200445Q855.6970961211662 313.4802478095073 854.1252860352387 311.0454831666001Q852.5842957549175 308.6107185236928 850.7967470297451 307.0389084377654L850.7967470297451 307.0389084377654Q848.7934596653278 305.49791815744425 845.5881998822599 305.1589002957736Q842.3829400991922 304.81988243410296 838.8078426488473 304.81988243410296L838.8078426488473 304.81988243410296L837.9448880918675 303.92610807151675L837.2668523685262 299.95035314828846L837.6983296470162 299.0565787857022Q839.2701397329436 299.0565787857022 842.814417377682 299.2723174249472Q846.3586950224205 299.48805606419216 850.1495311120103 299.73461450904347Q853.9095473959937 299.95035314828846 857.4538250407321 300.16609178753345Q860.9981026854706 300.3818304267784 862.5699127713981 300.3818304267784L862.5699127713981 300.3818304267784L866.7922261394777 300.3818304267784Q868.3332164197989 300.3818304267784 871.8774940645374 300.16609178753345Q875.4217717092756 299.95035314828846 879.2126077988655 299.73461450904347Q882.9726240828488 299.48805606419216 886.5169017275873 299.2723174249472Q890.0919991779322 299.0565787857022 891.6329894582533 299.0565787857022L891.6329894582533 299.0565787857022L892.0644667367433 299.95035314828846L891.4172508190084 303.92610807151675L890.3077378171772 304.81988243410296Q886.7634601724387 304.81988243410296 883.6506598061901 305.1589002957736Q880.5378594399417 305.49791815744425 878.5345720755242 307.0389084377654L878.5345720755242 307.0389084377654Q876.7778431559582 308.6107185236928 875.1135736532115 311.0454831666001Q873.4493041504647 313.4802478095073 872.9870070663685 319.70584854200445L872.9870070663685 319.70584854200445Q872.7712684271235 322.7878291026466 872.6479892046978 325.4691521904052Q872.5555297878785 328.1196554725575 872.5555297878785 331.66393311729587Q872.5555297878785 335.2390305676407 872.5555297878785 340.3242984927002Q872.5555297878785 345.4403862233662 872.5555297878785 353.4227158754293L872.5555297878785 353.4227158754293L872.5555297878785 394.25895830393745Q872.5555297878785 402.2412879560005 872.5555297878785 407.2340964642408Q872.5555297878785 412.22690497248095 872.5555297878785 415.5554439779745Q872.5555297878785 418.88398298346794 872.6479892046978 421.22628820955595Q872.7712684271235 423.5377736300376 872.9870070663685 426.2190967177962L872.9870070663685 426.2190967177962Q873.4493041504647 432.41387764468686 875.1135736532115 434.8486422875942Q876.7778431559582 437.3142267361079 878.5345720755242 438.8552170164289L878.5345720755242 438.8552170164289Q880.5378594399417 440.39620729675005 883.6506598061901 440.7352251584206Q886.7634601724387 441.0742430200912 890.3077378171772 441.0742430200912L890.3077378171772 441.0742430200912L891.4172508190084 441.96801738267743L892.0644667367433 445.9437723059058ZM965.5388833024515 299.0565787857022L965.9703605809414 299.95035314828846L965.2923248576001 303.92610807151675L964.4293703006202 304.81988243410296Q960.8542728502754 304.81988243410296 957.6490130672075 305.1589002957736Q954.4437532841398 305.49791815744425 952.4404659197223 307.0389084377654L952.4404659197223 307.0389084377654Q950.6529171945499 308.6107185236928 949.1119269142289 311.0454831666001Q947.5401168283015 313.4802478095073 947.1086395498115 319.70584854200445L947.1086395498115 319.70584854200445Q946.8929009105666 322.7878291026466 946.7696216881409 325.4691521904052Q946.6771622713215 328.1196554725575 946.5538830488958 331.66393311729587Q946.4306038264702 335.2390305676407 946.4306038264702 340.3242984927002Q946.4306038264702 345.4403862233662 946.4306038264702 353.4227158754293L946.4306038264702 353.4227158754293L946.4306038264702 394.25895830393745Q946.4306038264702 402.2412879560005 946.4306038264702 407.2340964642408Q946.4306038264702 412.22690497248095 946.5538830488958 415.5554439779745Q946.6771622713215 418.88398298346794 946.7696216881409 421.22628820955595Q946.8929009105666 423.5377736300376 947.1086395498115 426.2190967177962L947.1086395498115 426.2190967177962Q947.5401168283015 432.41387764468686 949.1119269142289 434.8486422875942Q950.6529171945499 437.3142267361079 952.4404659197223 438.8552170164289L952.4404659197223 438.8552170164289Q954.4437532841398 440.39620729675005 957.6490130672075 440.7352251584206Q960.8542728502754 441.0742430200912 964.4293703006202 441.0742430200912L964.4293703006202 441.0742430200912L965.2923248576001 441.96801738267743L965.9703605809414 445.9437723059058L965.5388833024515 446.837546668492Q963.9670732165239 446.837546668492 960.4227955717854 446.62180802924706Q956.878517927047 446.40606939000213 953.0876818374572 446.1903307507572Q949.3276655534738 445.9437723059058 945.7833879087353 445.72803366666085Q942.239110263997 445.5122950274159 940.6673001780694 445.5122950274159L940.6673001780694 445.5122950274159L936.4449868099898 445.5122950274159Q934.9039965296687 445.5122950274159 931.3597188849303 445.72803366666085Q927.8154412401918 445.9437723059058 924.024605150602 446.1903307507572Q920.2645888666186 446.40606939000213 916.7203112218801 446.62180802924706Q913.1452137715353 446.837546668492 911.6042234912143 446.837546668492L911.6042234912143 446.837546668492L911.1727462127244 445.9437723059058L911.8199621304591 441.96801738267743L912.9294751322903 441.0742430200912Q916.4737527770287 441.0742430200912 919.5865531432773 440.7352251584206Q922.699353509526 440.39620729675005 924.7026408739432 438.8552170164289L924.7026408739432 438.8552170164289Q926.4593697935093 437.3142267361079 928.123639296256 434.8486422875942Q929.7879087990027 432.41387764468686 930.250205883099 426.2190967177962L930.250205883099 426.2190967177962Q930.250205883099 424.6472866318687 930.3426652999183 422.55153985063214Q930.465944522344 420.42497326378907 930.5892237447697 417.34299270314693Q930.681683161589 414.2301923368983 930.681683161589 409.7921403295737Q930.681683161589 405.354088322249 930.681683161589 398.69701031126203L930.681683161589 398.69701031126203L930.681683161589 353.6384545146742Q930.681683161589 345.87186350185607 930.681683161589 340.54003713194516Q930.681683161589 335.2390305676407 930.5892237447697 331.44819447805094Q930.465944522344 327.68817819406763 930.3426652999183 325.0068551063089Q930.250205883099 322.3563518241567 930.0344672438541 319.70584854200445L930.0344672438541 319.70584854200445Q929.5721701597579 313.9117250879973 928.0311798794368 311.261221805845Q926.4593697935093 308.6107185236928 924.7026408739432 307.0389084377654L924.7026408739432 307.0389084377654Q922.699353509526 305.49791815744425 919.5865531432773 305.1589002957736Q916.4737527770287 304.81988243410296 912.9294751322903 304.81988243410296L912.9294751322903 304.81988243410296L911.8199621304591 303.92610807151675L911.1727462127244 299.95035314828846L911.6042234912143 299.0565787857022Q913.1452137715353 299.0565787857022 916.7203112218801 299.2723174249472Q920.2645888666186 299.48805606419216 924.024605150602 299.73461450904347Q927.8154412401918 299.95035314828846 931.3597188849303 300.16609178753345Q934.9039965296687 300.3818304267784 936.4449868099898 300.3818304267784L936.4449868099898 300.3818304267784L940.6673001780694 300.3818304267784Q942.239110263997 300.3818304267784 945.7833879087353 300.16609178753345Q949.3276655534738 299.95035314828846 953.0876818374572 299.73461450904347Q956.878517927047 299.48805606419216 960.4227955717854 299.2723174249472Q963.9670732165239 299.0565787857022 965.5388833024515 299.0565787857022L965.5388833024515 299.0565787857022ZM1109.5290150956512 438.8552170164289L1108.6660605386714 439.96473001826007Q1098.00240779885 443.2932690237536 1086.3525212796226 445.6355742498416Q1074.7026347603955 447.94705967032314 1062.0665144617628 447.94705967032314L1062.0665144617628 447.94705967032314Q1042.7424963465369 447.94705967032314 1028.442106545157 442.06047679949677Q1014.1108969381712 436.20471373427665 1004.6800364226063 425.9725382729448Q995.2491759070415 415.77118261721944 990.5953852604719 402.2412879560005Q985.9415946139022 388.7113932947816 985.9415946139022 373.6096885476352L985.9415946139022 373.6096885476352Q985.9415946139022 357.64502924350893 990.9344031221424 343.8685761374387Q995.9272116303828 330.12294283697486 1005.6970900076183 319.9215871812494Q1015.4669683848538 309.720231525524 1029.8906374086591 303.8336486546975Q1044.314306432464 297.94706578387104 1063.391766102839 297.94706578387104L1063.391766102839 297.94706578387104Q1067.3675210260672 297.94706578387104 1073.0383652576488 298.2860836455417Q1078.70920948923 298.6251015072123 1084.903990416121 299.48805606419216Q1091.1295911486181 300.3818304267784 1097.57093052036 301.83036129028017Q1103.9814500864954 303.27889215378195 1109.7755735405026 305.49791815744425L1109.7755735405026 305.49791815744425L1110.2070508189927 307.5012055218616L1106.4470345350092 329.0134298351437L1100.2214338025124 329.0134298351437L1099.3276594399258 328.33539411180243Q1097.786669159605 319.45929009715314 1089.003024561775 314.5897608113386Q1080.2501997695513 309.720231525524 1062.2822531010079 309.720231525524L1062.2822531010079 309.720231525524Q1037.1949313373807 309.720231525524 1024.096513954652 320.1373258204943L1024.096513954652 320.1373258204943Q1018.7955073903472 324.3596391885741 1015.0046713007575 330.12294283697486Q1011.244655016774 335.88624648537564 1008.6866111514412 342.75906313560756Q1006.1285672861081 349.66269959144586 1004.9265948674577 357.3060113818384Q1003.6938026432008 364.94932317223083 1003.6938026432008 372.50017554580404L1003.6938026432008 372.50017554580404Q1003.6938026432008 387.3861416537055 1008.0085754280999 399.128487589752Q1012.3541680186052 410.9016533314049 1019.9050203921784 419.00726220589365Q1027.4250529601454 427.08205127477595 1037.8729670607222 431.4276438652814Q1048.2900613556926 435.7424166501804 1060.4947043758352 435.7424166501804L1060.4947043758352 435.7424166501804Q1064.2855404654251 435.7424166501804 1069.0317905288139 435.4033987885098Q1073.8088603978094 435.0952007324455 1078.3701916275595 434.4171650091042Q1082.9007030517037 433.73912928576306 1086.4758005020485 432.8761747287832Q1090.020078146787 431.982400366197 1091.3453297878632 431.0886260036108L1091.3453297878632 431.0886260036108Q1093.1328785130354 429.97911300177964 1093.1328785130354 426.43483535704115L1093.1328785130354 426.43483535704115Q1093.1328785130354 424.86302527111366 1093.1328785130354 422.2125219889615Q1093.1328785130354 419.5620187068092 1093.1328785130354 416.54167775737994Q1093.1328785130354 413.55215661355714 1093.0095992906095 410.56263546973423Q1092.886320068184 407.57311432591143 1092.670581428939 405.354088322249L1092.670581428939 405.354088322249Q1092.2391041504493 399.59078467384825 1090.3590960084575 396.57044372441896Q1088.4482680608594 393.58092258059617 1087.1230164197832 392.68714821800995L1087.1230164197832 392.68714821800995Q1085.119729055366 391.1461579376888 1081.1439741321374 390.8071400760182Q1077.1373994033029 390.46812221434755 1073.5931217585644 390.46812221434755L1073.5931217585644 390.46812221434755L1072.4836087567332 389.6051676573678L1071.8055730333917 384.7048185659469L1072.2678701174882 383.81104420336067Q1073.8088603978094 383.81104420336067 1077.2606786257284 384.05760264821197Q1080.6816770480414 384.2733412874569 1084.3492339152053 384.48907992670183Q1088.0167907823693 384.7048185659469 1091.4686090102887 384.9205572051918Q1094.8896074326012 385.1671156500431 1096.4614175185288 385.1671156500431L1096.4614175185288 385.1671156500431L1103.1184955295157 385.1671156500431Q1104.659485809837 385.1671156500431 1107.3099890919889 384.9205572051918Q1109.9913121797476 384.7048185659469 1112.857554101145 384.48907992670183Q1115.7546158281484 384.2733412874569 1118.4051191103008 384.05760264821197Q1121.0864421980596 383.81104420336067 1122.6274324783803 383.81104420336067L1122.6274324783803 383.81104420336067L1123.0897295624768 384.7048185659469L1122.6274324783803 390.0366449358577L1121.5179194765492 390.9304192984439Q1115.0765801048074 390.9304192984439 1112.549356045081 394.5979761656081Q1109.9913121797476 398.2347132271657 1109.5290150956512 405.354088322249L1109.5290150956512 405.354088322249Q1109.0975378171615 410.9016533314049 1108.974258594736 417.2197134807212Q1108.8817991779165 423.5377736300376 1108.8817991779165 426.6505739962861L1108.8817991779165 426.6505739962861Q1108.8817991779165 429.97911300177964 1108.974258594736 433.86240850818865Q1109.0975378171615 437.7457040145978 1109.5290150956512 438.8552170164289L1109.5290150956512 438.8552170164289ZM1215.8265246321985 297.94706578387104L1215.8265246321985 297.94706578387104Q1233.1472553830072 297.94706578387104 1246.677150044226 303.92610807151675Q1260.2070447054452 309.93597016476895 1269.422166581765 320.26060504292Q1278.6372884580846 330.5544201154647 1283.5068177438993 344.1151345822901Q1288.4071668353204 357.64502924350893 1288.4071668353204 372.50017554580404L1288.4071668353204 372.50017554580404Q1288.4071668353204 387.1395832088541 1283.6300969663248 400.79275709249873Q1278.8530270973297 414.44593097614336 1269.5454458041904 424.86302527111366Q1260.2070447054452 435.31093937169044 1246.3381321825555 441.6289995210068Q1232.4692196596661 447.94705967032314 1214.2855343518772 447.94705967032314L1214.2855343518772 447.94705967032314Q1196.5333263225784 447.94705967032314 1183.3116297174238 441.96801738267743Q1170.1207529178755 435.95815528942535 1161.1213696808004 425.8800788561256Q1152.1528062493321 415.77118261721944 1147.7147542420075 402.3645671784262Q1143.276702234683 388.92713193402653 1143.276702234683 374.07198563173154L1143.276702234683 374.07198563173154Q1143.276702234683 358.29224516124384 1148.1462315204972 344.4233326383543Q1153.0465806119182 330.5544201154647 1162.3541619050575 320.26060504292Q1171.6617431981967 309.93597016476895 1185.222457665022 303.92610807151675Q1198.7523523262407 297.94706578387104 1215.8265246321985 297.94706578387104ZM1215.6107859929534 436.20471373427665L1215.6107859929534 436.20471373427665Q1228.9249420149272 436.20471373427665 1239.2495768930785 431.2119052260365Q1249.5742117712298 426.2190967177962 1256.6627670607063 417.55873134239187Q1263.7513223501833 408.8983659669875 1267.5421584397732 397.37175867018595Q1271.3021747237567 385.814331567778 1271.3021747237567 372.715914185049L1271.3021747237567 372.715914185049Q1271.3021747237567 359.401758163075 1267.4188792173477 347.87515086627343Q1263.5355837109382 336.3485435694719 1256.2312897822167 327.78063761088686Q1248.8961760478883 319.2435514579082 1238.3558025304924 314.46648158891287Q1227.8154290130965 309.720231525524 1214.5012729911223 309.720231525524L1214.5012729911223 309.720231525524Q1201.402855608393 309.720231525524 1191.3247791750932 314.46648158891287Q1181.2158829361874 319.2435514579082 1174.343066285955 327.68817819406763Q1167.4702496357236 336.10198512462057 1164.0184314078042 347.5361330046028Q1160.5666131798848 358.9702808845851 1160.5666131798848 372.50017554580404L1160.5666131798848 372.50017554580404Q1160.5666131798848 387.3861416537055 1164.5731879087198 399.128487589752Q1168.5797626375547 410.9016533314049 1175.8840565662763 419.0997216227129Q1183.2191703006047 427.32860971962737 1193.2972467339046 431.76666172695207Q1203.4061429728104 436.20471373427665 1215.6107859929534 436.20471373427665Z " fill="#FFFF" transform="matrix(0.6791330955040948,0,0,0.6791330955040948,0,46.7192990726939)"/></g></svg>